@startuml class_diagram

skinparam packageStyle rectangle

' Mission Control System
rectangle MissionControl {

  class Model {
  }

  class View {
    goNoGo: GoNoGoView
    map: MapView
    phase: PhaseView
    readings: ReadingsView
    void draw()
  }

  class Controller {
    void updateLaunchAngle()
    void suggestLaunchAngle(Vector)
    void setLocation(Location)
    void updateWeather()
    void runSimulations()
    void sendNoGo()
    void sendGo()
    void primeLaunch()
    void launchRocket()
  }
}

rectangle Rocket {
  interface Rocket {
    void suggestLaunchAngle(Vector)
    void prime()
    void launch()
    void update()
  }

  enum RocketState {
    LIFT_OFF
    POWERED_ASCENT
    COAST
    APOGEE
    EJECTION
    RECOVERY
  }
}

class Location {
  latitude: float
  longitude: float
}

class Velocity {
  velocity: float
}

class Vector {
  x: float
  y: float
  z: float
}

rectangle Simulator {
  interface Simulator {
    Simulation runSimulation(Vector, Location, Weather)
  }

  class Simulation {
    Simulation run()
  }
}

rectangle Weather {
  interface WeatherService {
    Weather run()
  }

  class Weather {
    windSpeed: float
    cloudCoverage: float
  }
}

rectangle Map {
  interface MapService {
    void run()
  }
}

' MVC
Model "1" <-- "1" Controller : controller
View "1..*" <-- "1" Model : views
Simulator <-- Model : simulations

' External Interface
MapService "1" <-- "1" View : map
WeatherService <-- Model : weather
Rocket "1" <-- "1" Model : sendsInstructions
Model "1" <-- "1" Rocket : rocket

' Rocket
Rocket "1" --> "1" Location : location
Rocket "1" --> "1" Velocity: velocity
Rocket "1" --> "1" Vector : location
Rocket "1" --> "1" RocketState : state

' Simulation
Simulator "1" --> "0..*" Simulation : simulations
Simulation "1" --> "1" Location : location
Simulation "1" --> "1" Vector: vector
Simulation "1" --> "1" Weather: weather

' Model
Model "1" <-- "1" Simulator : sends results to
Model "1" <-- "1" WeatherService : getReadings

' Weather
WeatherService "1" --> "1" Location: location
WeatherService "1" --> "1" Weather

' Map
MapService "1" --> "1" Location : location
@enduml
